# xmcd
#
# Track frame offsets: 
#        150
#        10561
#        21367
#        32900
#        45167
#        54173
#        65197
#        76544
#        87310
#        96852
#        107973
#        120660
#        130608
#        139290
#        152480
#        162760
#        173597
#        186143
#        196220
#        207508
#        218720
#        231623
#        242135
#        253136
#
# Disc length: 3532 seconds
#
# Revision: 0
# Processed by: cddbd v1.5.2PL0 Copyright (c) Steve Scherf et al.
# Submitted via: ExactAudioCopyFreeDBPlugin 1.0
#
DISCID=420dca18
DTITLE=George Jones - Country Church Time and White Lightning And Other 
DTITLE=Favorites and Singles
DYEAR=1900
DGENRE=Country
TTITLE0=The Good Ole Bible
TTITLE1=Will The Circle Be Unbroken
TTITLE2=My Lord Has Called Me
TTITLE3=Take The Devil Out Of Me
TTITLE4=Jesus Wants Me
TTITLE5=A Wandering Soul
TTITLE6=We'll Understand It
TTITLE7=Cup Of Loneliness
TTITLE8=If You Want To Wear A Crown
TTITLE9=My Soul's Been Satisfied
TTITLE10=White Lightning
TTITLE11=I'm With The Wrong One
TTITLE12=That's The Way I Feel
TTITLE13=Life To Go
TTITLE14=Don't Do This To Me
TTITLE15=Give Away Girl
TTITLE16=You're Back Again
TTITLE17=No Use To Cry
TTITLE18=Nothing Can Stop Me
TTITLE19=Flame In My Heart
TTITLE20=Color Of The Blues
TTITLE21=Treasure Of Love
TTITLE22=Who Shot Sam
TTITLE23=Money To Burn
EXTD=
EXTT0=
EXTT1=
EXTT2=
EXTT3=
EXTT4=
EXTT5=
EXTT6=
EXTT7=
EXTT8=
EXTT9=
EXTT10=
EXTT11=
EXTT12=
EXTT13=
EXTT14=
EXTT15=
EXTT16=
EXTT17=
EXTT18=
EXTT19=
EXTT20=
EXTT21=
EXTT22=
EXTT23=
PLAYORDER=
